<?xml version="1.0" encoding="UTF-8"?>
<svg width="17px" height="15px" viewBox="0 0 17 15" version="1.1" xmlns="http://www.w3.org/2000/svg" xmlns:xlink="http://www.w3.org/1999/xlink">
    <!-- Generator: Sketch 42 (36781) - http://www.bohemiancoding.com/sketch -->
    <title>Shape</title>
    <desc>Created with Sketch.</desc>
    <defs></defs>
    <g id="Page-1" stroke="none" stroke-width="1" fill="none" fill-rule="evenodd">
        <g id="Artboard" transform="translate(-1887.000000, -420.000000)"></g>
        <g id="Page-#4" transform="translate(-214.000000, -300.000000)" fill="#410093">
            <g id="Body" transform="translate(-9.000000, 56.000000)">
                <g id="objects-on-map" transform="translate(58.000000, 83.000000)">
                    <g id="soÌ-carro" transform="translate(164.000000, 161.000000)">
                        <path d="M13.4123944,14.9201613 L16.1994366,14.9201613 L16.1994366,13.2024194 L13.4123944,13.2024194 L13.4123944,14.9177419 L13.4123944,14.9201613 Z M2.77183099,14.9201613 L5.54929577,14.9201613 L5.54929577,13.2024194 L2.77183099,13.2024194 L2.77183099,14.9177419 L2.77183099,14.9201613 Z M4.28267606,1.93548387 L4.28267606,1.89677419 C4.3147714,1.36381752 4.76799678,0.957828661 5.29549296,0.989516129 L13.6757746,0.989516129 C14.2032708,0.957828661 14.6564962,1.36381752 14.6885915,1.89677419 L14.6885915,1.93548387 L15.2225352,5.43870968 L16.3383099,5.43870968 L15.7971831,1.86048387 C15.7756338,0.82983871 14.8346479,0 13.678169,0 L5.29788732,0 C4.13901408,0 3.19802817,0.82983871 3.17647887,1.86048387 L2.63295775,5.43870968 L3.74873239,5.43870968 L4.28267606,1.93548387 L4.28267606,1.93548387 Z M16.3574648,5.78225806 L2.61619718,5.78225806 C1.72320896,5.78359284 0.999999023,6.51543311 1,7.41774194 L1,11.2016129 C0.999364505,11.6353703 1.16928503,12.0516172 1.4723809,12.3587838 C1.77547677,12.6659503 2.18691987,12.838875 2.61619718,12.8395161 L16.3574648,12.8395161 C16.7869379,12.839518 17.1987514,12.6667995 17.5019852,12.3594931 C17.805219,12.0521868 17.9749345,11.6355663 17.973662,11.2016129 L17.973662,7.41774194 C17.9742976,6.98420727 17.8043008,6.56820911 17.5011361,6.26142664 C17.1979715,5.95464417 16.7865221,5.78225759 16.3574648,5.78225806 L16.3574648,5.78225806 Z M7.71380282,7.95967742 L11.2598592,7.95967742 C11.4701163,7.95967742 11.6405634,8.13190337 11.6405634,8.34435484 C11.6405634,8.55680631 11.4701163,8.72903226 11.2598592,8.72903226 L7.70422535,8.72903226 C7.49396821,8.72903226 7.32352113,8.55680631 7.32352113,8.34435484 C7.32352113,8.13190337 7.49396821,7.95967742 7.70422535,7.95967742 L7.71380282,7.95967742 Z M4.41915493,10.8508065 C3.80183247,10.8527649 3.24421709,10.4785251 3.00663378,9.90280247 C2.76905048,9.32707982 2.89835641,8.66342067 3.33418457,8.221657 C3.77001273,7.77989334 4.42640731,7.64715159 4.99692783,7.88540278 C5.56744836,8.12365398 5.93957442,8.68590925 5.93957746,9.30967742 C5.94021299,9.71776875 5.78038299,10.1094008 5.49524835,10.3984186 C5.2101137,10.6874365 4.82303124,10.8501653 4.41915493,10.8508065 L4.41915493,10.8508065 Z M11.2598592,10.6572581 L7.70422535,10.6572581 C7.49330703,10.6572581 7.32232394,10.4844905 7.32232394,10.271371 C7.32232394,10.0582514 7.49330703,9.88548387 7.70422535,9.88548387 L11.2598592,9.88548387 C11.4707775,9.88548387 11.6417606,10.0582514 11.6417606,10.271371 C11.6417606,10.4844905 11.4707775,10.6572581 11.2598592,10.6572581 L11.2598592,10.6572581 Z M14.5521127,10.8508065 C13.7107082,10.8468024 13.0314533,10.1550525 13.034092,9.30486149 C13.0367307,8.4546705 13.7202661,7.76723895 14.5616789,7.76856736 C15.4030917,7.76989576 16.0844977,8.45948225 16.084507,9.30967742 C16.0851426,9.71776875 15.9253126,10.1094008 15.6401779,10.3984186 C15.3550433,10.6874365 14.9679608,10.8501653 14.5640845,10.8508065 L14.5521127,10.8508065 Z" id="Shape"></path>
                    </g>
                </g>
            </g>
        </g>
    </g>
</svg>