<?xml version="1.0" encoding="UTF-8"?>
<svg width="29px" height="23px" viewBox="0 0 29 23" version="1.1" xmlns="http://www.w3.org/2000/svg" xmlns:xlink="http://www.w3.org/1999/xlink">
    <!-- Generator: Sketch 42 (36781) - http://www.bohemiancoding.com/sketch -->
    <title>só guincho</title>
    <desc>Created with Sketch.</desc>
    <defs></defs>
    <g id="Page-1" stroke="none" stroke-width="1" fill="none" fill-rule="evenodd">
        <g id="Artboard" transform="translate(-1722.000000, -259.000000)"></g>
        <g id="Page-#4" transform="translate(-49.000000, -139.000000)" fill="#0084ff">
            <g id="Body" transform="translate(-9.000000, 56.000000)">
                <g id="objects-on-map" transform="translate(58.000000, 83.000000)">
                    <g id="só-guincho">
                        <path d="M20.7669853,16.8027778 C19.5136458,16.8001945 18.3821998,17.5520081 17.900376,18.7075578 C17.4185523,19.8631075 17.6812684,21.194754 18.5659885,22.081391 C19.4507085,22.968028 20.7831456,23.234991 21.9418247,22.7577633 C23.1005039,22.2805355 23.8571692,21.1531291 23.8588971,19.9013889 C23.8605952,19.0809117 23.535727,18.2933963 22.9558195,17.7122324 C22.3759121,17.1310685 21.5885127,16.8039062 20.7669853,16.8027778 L20.7669853,16.8027778 Z" id="Shape"></path>
                        <path d="M28.9552206,17.1286111 L27.2365441,6.38888889 C26.9487938,4.84552441 25.6240593,3.71034845 24.0529412,3.66083333 L23.9122059,3.66083333 L23.9122059,2.20842593 C23.9127616,2.19778501 23.9127616,2.1871224 23.9122059,2.17648148 C23.8766852,1.08176392 22.9778326,0.212678974 21.8811397,0.212678974 C20.7844469,0.212678974 19.8855942,1.08176392 19.8500735,2.17648148 C19.8493391,2.187117 19.8493391,2.19779041 19.8500735,2.20842593 L19.8500735,3.66083333 L19.1549265,3.66083333 C18.9280265,3.64214985 18.7036882,3.71940911 18.5365441,3.8737963 C18.4130317,4.03640359 18.3545056,4.23908552 18.3723529,4.44240741 L18.3723529,13.57 C18.3654008,14.3904202 17.7011752,15.0537975 16.8797059,15.0607407 L0.639705882,15.0607407 C0.286406079,15.0607407 4.32667473e-17,15.346781 0,15.6996296 L0,19.2007407 C4.32667473e-17,19.5535893 0.286406079,19.8396296 0.639705882,19.8396296 L4.47794118,19.8396296 L4.56110294,19.8396296 L4.56110294,19.895 C4.56110294,21.6004349 5.94539899,22.982963 7.65301471,22.982963 C9.36063042,22.982963 10.7449265,21.6004349 10.7449265,19.895 L10.7449265,19.8396296 L16.6579412,19.8396296 C16.6579412,17.5725774 18.4981002,15.7347685 20.7680515,15.7347685 C23.0380027,15.7347685 24.8781618,17.5725774 24.8781618,19.8396296 L26.6416176,19.8396296 C27.3369477,19.8632604 28.0050144,19.5684547 28.4557009,19.0391077 C28.9063874,18.5097607 29.0903439,17.8038353 28.9552206,17.1222222 L28.9552206,17.1286111 Z M20.4258088,2.2212037 L20.4258088,2.2062963 C20.4258089,1.40885851 21.0730866,0.762407468 21.8715441,0.762407468 C22.6700016,0.762407468 23.3172794,1.40885851 23.3172794,2.2062963 L23.3172794,2.22759259 L23.3172794,3.65657407 L22.2873529,3.65657407 L22.2873529,2.9325 C22.5935422,2.74633595 22.7382683,2.37941174 22.6414714,2.03470339 C22.5446745,1.68999503 22.2300097,1.45174222 21.8715441,1.45174222 C21.5130785,1.45174222 21.1984138,1.68999503 21.1016169,2.03470339 C21.0048199,2.37941174 21.1495461,2.74633595 21.4557353,2.9325 L21.4557353,3.66296296 L20.4322059,3.66296296 L20.4322059,2.22972222 L20.4258088,2.2212037 Z M23.7181618,11.0740741 C23.7181632,11.5672316 23.3184927,11.9673443 22.8247059,11.9685185 L20.9247794,11.9685185 C20.4309926,11.9673443 20.0313221,11.5672316 20.0313235,11.0740741 L20.0313235,9.18083333 C20.0313221,8.68767579 20.4309926,8.28756307 20.9247794,8.28638889 L22.8161765,8.28638889 C23.3099633,8.28756307 23.7096338,8.68767579 23.7096324,9.18083333 L23.7096324,11.0740741 L23.7181618,11.0740741 Z M27.5969118,14.162037 C26.7439706,14.2940741 25.9251471,13.6019444 25.7716176,12.6116667 L25.1617647,8.73148148 C25.0061029,7.74333333 25.5733088,6.83185185 26.42625,6.69768519 L26.7461029,6.64657407 L27.9167647,14.1322222 L27.5969118,14.1790741 L27.5969118,14.162037 Z" id="Shape"></path>
                    </g>
                </g>
            </g>
        </g>
    </g>
</svg>